<svg data-v-fde0c5aa="" xmlns="http://www.w3.org/2000/svg" viewBox="0 0 300 300" class="iconAbove"><!----><defs data-v-fde0c5aa=""><!----></defs><rect data-v-fde0c5aa="" fill="transparent" x="0" y="0" width="300px" height="300px" class="logo-background-square"></rect><defs data-v-fde0c5aa=""><!----></defs><g data-v-fde0c5aa="" id="2791dad7-7cac-4d96-8980-28f2159e78a3" fill="#000000" transform="matrix(4.627720443344722,0,0,4.627720443344722,-1.6966660704290542,181.28247419950512)"><path d="M3.37 4.70L3.37 4.70Q3.51 4.96 3.56 5.19L3.56 5.19L3.56 5.19Q3.60 5.42 3.60 5.98L3.60 5.98L3.60 5.98Q3.60 6.54 3.14 9.70L3.14 9.70L3.14 9.70Q2.67 12.87 2.67 14.13L2.67 14.13L2.67 14.13Q2.67 15.40 2.87 15.86L2.87 15.86L2.87 15.86Q2.00 15.55 1.65 15.03L1.65 15.03L1.65 15.03Q1.29 14.50 1.29 13.80L1.29 13.80L1.29 13.80Q1.29 13.09 1.58 10.92L1.58 10.92L1.58 10.92Q2.10 7.32 2.10 5.35L2.10 5.35L2.10 5.35Q2.10 4.93 2.04 4.20L2.04 4.20L2.04 4.20Q3.11 4.26 3.37 4.70L3.37 4.70ZM10.36 7.76L10.36 7.76L10.36 7.76Q10.36 8.34 10.14 8.57L10.14 8.57L10.14 8.57Q9.91 8.79 9.48 8.79L9.48 8.79L8.30 8.79L8.30 8.79Q7.83 11.82 7.83 14.55L7.83 14.55L7.83 14.55Q7.83 15.37 7.86 15.74L7.86 15.74L7.86 15.74Q7.90 16.11 8.05 17.01L8.05 17.01L8.05 17.01Q6.47 16.38 6.47 14.13L6.47 14.13L6.47 14.13Q6.47 11.59 6.99 8.88L6.99 8.88L6.99 8.88Q6.29 8.99 5.54 9.30L5.54 9.30L5.54 9.30Q5.52 9.07 5.52 8.89L5.52 8.89L5.52 8.89Q5.52 8.22 5.96 7.99L5.96 7.99L5.96 7.99Q6.40 7.76 7.22 7.76L7.22 7.76L7.22 7.76Q8.43 2.83 10.93 2.83L10.93 2.83L10.93 2.83Q11.76 2.83 12.29 3.29L12.29 3.29L12.29 3.29Q12.82 3.75 12.82 4.40L12.82 4.40L12.82 4.40Q12.82 5.04 12.45 5.48L12.45 5.48L12.45 5.48Q12.07 5.92 11.45 5.92L11.45 5.92L11.45 5.92Q11.20 5.92 10.99 5.82L10.99 5.82L10.99 5.82Q11.16 5.67 11.33 5.31L11.33 5.31L11.33 5.31Q11.51 4.96 11.51 4.57L11.51 4.57L11.51 4.57Q11.51 4.19 11.30 3.92L11.30 3.92L11.30 3.92Q11.10 3.65 10.78 3.65L10.78 3.65L10.78 3.65Q9.30 3.65 8.47 7.80L8.47 7.80L8.47 7.80Q9.83 7.80 10.33 7.39L10.33 7.39L10.33 7.39Q10.36 7.59 10.36 7.76ZM13.20 9.95L13.20 9.95L13.20 9.95Q12.80 10.65 12.58 11.39L12.58 11.39L12.58 11.39Q12.36 12.12 12.36 12.80L12.36 12.80L12.36 12.80Q12.36 13.47 12.66 13.94L12.66 13.94L12.66 13.94Q12.96 14.41 13.52 14.41L13.52 14.41L13.52 14.41Q14.31 14.41 14.99 13.55L14.99 13.55L14.99 13.55Q15.68 12.68 16.05 11.46L16.05 11.46L16.05 11.46Q16.42 10.23 16.42 9.19L16.42 9.19L16.42 9.19Q16.42 8.15 16.34 7.48L16.34 7.48L16.34 7.48Q16.67 7.45 16.76 7.45L16.76 7.45L16.76 7.45Q17.95 7.45 17.95 8.67L17.95 8.67L17.95 8.67Q17.95 8.93 17.61 10.83L17.61 10.83L17.61 10.83Q17.28 12.73 17.28 13.87L17.28 13.87L17.28 13.87Q17.28 15.01 17.71 15.89L17.71 15.89L17.71 15.89Q16.83 15.71 16.43 15.11L16.43 15.11L16.43 15.11Q16.03 14.52 16.03 13.40L16.03 13.40L16.03 13.40Q16.03 13.20 16.09 12.64L16.09 12.64L16.09 12.64Q15.71 13.97 14.76 14.78L14.76 14.78L14.76 14.78Q13.80 15.60 12.89 15.60L12.89 15.60L12.89 15.60Q11.97 15.60 11.41 14.90L11.41 14.90L11.41 14.90Q10.85 14.21 10.85 12.99L10.85 12.99L10.85 12.99Q10.85 11.76 11.30 10.59L11.30 10.59L11.30 10.59Q11.76 9.42 12.68 8.57L12.68 8.57L12.68 8.57Q13.59 7.71 14.73 7.71L14.73 7.71L14.73 7.71Q15.22 7.71 15.81 7.91L15.81 7.91L15.81 7.91Q14.98 8.12 14.29 8.68L14.29 8.68L14.29 8.68Q13.61 9.24 13.20 9.95ZM20.37 7.50L20.37 7.50L20.37 7.50Q21.71 7.70 22.87 7.70L22.87 7.70L22.87 7.70Q24.02 7.70 24.78 7.63L24.78 7.63L24.78 7.63Q24.99 7.20 25.09 6.83L25.09 6.83L25.09 6.83Q25.72 7.36 25.72 7.99L25.72 7.99L25.72 7.99Q25.72 8.62 25.15 9.48L25.15 9.48L25.15 9.48Q24.58 10.33 23.34 11.80L23.34 11.80L23.34 11.80Q22.09 13.26 21.46 14.11L21.46 14.11L21.46 14.11Q23.14 14.15 23.75 14.15L23.75 14.15L23.75 14.15Q24.36 14.15 25.23 14.03L25.23 14.03L25.23 14.03Q25.30 14.38 25.30 14.76L25.30 14.76L25.30 14.76Q25.30 15.53 24.23 15.53L24.23 15.53L24.23 15.53Q23.98 15.53 22.77 15.41L22.77 15.41L22.77 15.41Q21.56 15.30 20.68 15.30L20.68 15.30L20.68 15.30Q19.80 15.30 18.93 15.54L18.93 15.54L18.93 15.54Q19.12 14.49 19.87 14.22L19.87 14.22L19.87 14.22Q22.64 11.35 24.22 8.69L24.22 8.69L24.22 8.69Q23.49 8.72 22.43 8.86L22.43 8.86L22.43 8.86Q21.38 8.99 21.17 8.99L21.17 8.99L21.17 8.99Q20.26 8.99 20.26 8.08L20.26 8.08L20.26 8.08Q20.26 7.81 20.37 7.50ZM30.48 14.81L30.48 14.81L30.48 14.81Q30.48 14.55 31.25 12.83L31.25 12.83L31.25 12.83Q32.02 11.12 33.03 8.90L33.03 8.90L33.03 8.90Q34.05 6.68 34.41 5.73L34.41 5.73L34.72 4.93L34.72 4.93Q34.50 4.59 34.23 4.33L34.23 4.33L34.23 4.33Q34.66 4.16 35.06 4.16L35.06 4.16L35.06 4.16Q35.94 4.16 36.43 5.28L36.43 5.28L36.43 5.28Q36.74 5.99 37.25 8.47L37.25 8.47L37.25 8.47Q37.27 8.50 37.30 8.65L37.30 8.65L37.30 8.65Q37.32 8.81 37.58 10.07L37.58 10.07L37.58 10.07Q37.84 11.34 37.94 11.75L37.94 11.75L37.94 11.75Q38.04 12.17 38.28 13.02L38.28 13.02L38.28 13.02Q38.65 14.46 39.23 15.26L39.23 15.26L39.23 15.26Q38.57 15.65 38.14 15.65L38.14 15.65L38.14 15.65Q37.72 15.65 37.53 15.39L37.53 15.39L37.53 15.39Q37.34 15.13 37.18 14.60L37.18 14.60L37.18 14.60Q37.02 14.06 36.50 11.59L36.50 11.59L36.50 11.59Q36.19 12.07 35.27 12.10L35.27 12.10L32.77 12.19L32.77 12.19Q31.98 14.35 31.61 15.89L31.61 15.89L31.61 15.89Q30.48 15.41 30.48 14.81ZM35.21 6.17L35.21 6.17L35.21 6.17Q33.60 10.00 33.15 11.14L33.15 11.14L36.40 11.14L36.40 11.14Q35.74 7.94 35.21 6.17ZM40.73 14.41L40.73 14.41L40.73 14.41Q40.71 14.18 40.71 13.69L40.71 13.69L40.71 13.69Q40.71 13.19 41.18 9.44L41.18 9.44L41.18 9.44Q41.65 5.68 41.65 4.28L41.65 4.28L41.65 4.28Q41.65 2.88 41.48 2.46L41.48 2.46L41.48 2.46Q42.27 2.76 42.59 3.33L42.59 3.33L42.59 3.33Q42.91 3.91 42.91 4.72L42.91 4.72L42.91 4.72Q42.91 5.53 42.50 8.92L42.50 8.92L42.50 8.92Q42.10 12.31 42.10 14.38L42.10 14.38L42.10 14.38Q42.10 14.83 42.15 15.64L42.15 15.64L42.15 15.64Q41.38 15.58 41.06 15.27L41.06 15.27L41.06 15.27Q40.80 15.02 40.73 14.41ZM46.86 9.95L46.86 9.95L46.86 9.95Q46.45 10.65 46.23 11.39L46.23 11.39L46.23 11.39Q46.02 12.12 46.02 12.80L46.02 12.80L46.02 12.80Q46.02 13.47 46.32 13.94L46.32 13.94L46.32 13.94Q46.62 14.41 47.18 14.41L47.18 14.41L47.18 14.41Q47.96 14.41 48.65 13.55L48.65 13.55L48.65 13.55Q49.34 12.68 49.71 11.46L49.71 11.46L49.71 11.46Q50.08 10.23 50.08 9.19L50.08 9.19L50.08 9.19Q50.08 8.15 49.99 7.48L49.99 7.48L49.99 7.48Q50.33 7.45 50.41 7.45L50.41 7.45L50.41 7.45Q51.60 7.45 51.60 8.67L51.60 8.67L51.60 8.67Q51.60 8.93 51.27 10.83L51.27 10.83L51.27 10.83Q50.93 12.73 50.93 13.87L50.93 13.87L50.93 13.87Q50.93 15.01 51.37 15.89L51.37 15.89L51.37 15.89Q50.48 15.71 50.08 15.11L50.08 15.11L50.08 15.11Q49.69 14.52 49.69 13.40L49.69 13.40L49.69 13.40Q49.69 13.20 49.74 12.64L49.74 12.64L49.74 12.64Q49.36 13.97 48.41 14.78L48.41 14.78L48.41 14.78Q47.46 15.60 46.54 15.60L46.54 15.60L46.54 15.60Q45.63 15.60 45.07 14.90L45.07 14.90L45.07 14.90Q44.51 14.21 44.51 12.99L44.51 12.99L44.51 12.99Q44.51 11.76 44.96 10.59L44.96 10.59L44.96 10.59Q45.42 9.42 46.33 8.57L46.33 8.57L46.33 8.57Q47.25 7.71 48.38 7.71L48.38 7.71L48.38 7.71Q48.87 7.71 49.46 7.91L49.46 7.91L49.46 7.91Q48.64 8.12 47.95 8.68L47.95 8.68L47.95 8.68Q47.26 9.24 46.86 9.95ZM60.35 10.12L60.35 10.12L60.35 10.12Q59.98 10.78 59.72 11.80L59.72 11.80L59.72 11.80Q59.47 12.82 59.47 13.73L59.47 13.73L59.47 13.73Q59.47 14.64 59.56 15.43L59.56 15.43L59.56 15.43Q59.19 15.46 59.12 15.46L59.12 15.46L59.12 15.46Q57.90 15.46 57.90 14.27L57.90 14.27L57.90 14.27Q57.90 13.83 58.20 12.11L58.20 12.11L58.20 12.11Q58.51 10.39 58.51 9.53L58.51 9.53L58.51 9.53Q58.51 8.67 57.86 8.67L57.86 8.67L57.86 8.67Q57.06 8.67 56.24 10.21L56.24 10.21L56.24 10.21Q55.41 11.75 55.41 13.94L55.41 13.94L55.41 13.94Q55.41 14.64 55.50 15.43L55.50 15.43L55.50 15.43Q55.13 15.46 55.06 15.46L55.06 15.46L55.06 15.46Q53.84 15.46 53.84 14.27L53.84 14.27L53.84 14.27Q53.84 14.11 54.13 12.18L54.13 12.18L54.13 12.18Q54.42 10.25 54.42 9.12L54.42 9.12L54.42 9.12Q54.42 7.99 54.18 7.06L54.18 7.06L54.18 7.06Q55.02 7.38 55.35 7.98L55.35 7.98L55.35 7.98Q55.68 8.58 55.68 9.46L55.68 9.46L55.68 9.46Q55.68 9.91 55.58 10.60L55.58 10.60L55.58 10.60Q56.06 9.20 56.90 8.27L56.90 8.27L56.90 8.27Q57.74 7.35 58.44 7.35L58.44 7.35L58.44 7.35Q60.00 7.35 60.00 9.77L60.00 9.77L60.00 9.77Q60.52 8.65 61.20 8.00L61.20 8.00L61.20 8.00Q61.88 7.35 62.47 7.35L62.47 7.35L62.47 7.35Q63.32 7.35 63.67 7.86L63.67 7.86L63.67 7.86Q64.02 8.37 64.02 9.25L64.02 9.25L64.02 9.25Q64.02 10.12 63.75 11.70L63.75 11.70L63.75 11.70Q63.48 13.29 63.48 14.01L63.48 14.01L63.48 14.01Q63.48 14.73 63.66 15.06L63.66 15.06L63.66 15.06Q63.84 15.39 64.27 15.62L64.27 15.62L64.27 15.62Q64.09 15.64 63.76 15.64L63.76 15.64L63.76 15.64Q62.86 15.64 62.43 15.27L62.43 15.27L62.43 15.27Q62.01 14.90 62.01 14L62.01 14L62.01 14Q62.01 13.48 62.29 11.91L62.29 11.91L62.29 11.91Q62.57 10.33 62.57 9.59L62.57 9.59L62.57 9.59Q62.57 8.67 61.92 8.67L61.92 8.67L61.92 8.67Q61.56 8.67 61.14 9.06L61.14 9.06L61.14 9.06Q60.72 9.45 60.35 10.12Z"></path></g><defs data-v-fde0c5aa=""><linearGradient data-v-fde0c5aa="" gradientTransform="rotate(25)" id="cb209feb-2108-4d52-8c67-781355dd8d32" x1="0%" y1="0%" x2="100%" y2="0%"><stop data-v-fde0c5aa="" offset="0%" stop-color="#E90DCA" stop-opacity="1"></stop><stop data-v-fde0c5aa="" offset="100%" stop-color="#1536F1" stop-opacity="1"></stop></linearGradient></defs><g data-v-fde0c5aa="" id="a88f95ac-666f-4bab-9959-daad33996cb2" stroke="none" fill="url(#cb209feb-2108-4d52-8c67-781355dd8d32)" transform="matrix(2.0591232954846155,0,0,2.0591232954846155,83.18003753024296,40.41182466523359)"><path d="M58 49.8l-1.1 1.1 2.4 2.3-2.4 2.4 1.1 1.1 3.5-3.5zM48.3 49.8l-3.4 3.4 3.4 3.5 1.1-1.1-2.4-2.4 2.4-2.3zM50.99 59.334l-1.345-.665 5.678-11.471 1.344.665z"></path><path d="M53.2 41.2c-.9 0-1.7.1-2.6.3-1.9-1.9-4.2-3.2-6.8-4 .5-2.3.3-4.1-.9-5.4-1.5-1.7-4-2-5.7-1.9 1.9-2.1 3.3-4.8 3.4-7.9.9-.8 3.4-3 3.3-5.4-.1-2.4-1.7-2.5-2.1-2.5h-.1l.4-3.6c.2-4.3-1.7-5.9-3.1-6.5 1.4-2 1-3.3 1-3.4l-.3-.9-.8.6c-.9.6-1.8.9-2.7.9-.6 0-1-.2-1-.2C32.5.1 26.8-.2 26.5-.2c-5.9 0-7.7 3-8.1 4.2-5 .6-4.8 5.6-4.7 8v1.1c0 .5 0 1 .1 1.5-.7 0-2 .4-2 2.5-.1 2.4 2.4 4.7 3.3 5.4.1 2.9 1.4 5.5 3.2 7.6-1.7 0-4.4.2-5.9 1.9-1.1 1.3-1.4 3.1-.8 5.5-7 2.3-11.8 9-11.8 16.4v3.2h42c1.6 4.7 6.1 8.1 11.3 8.1 6.6 0 12-5.4 12-12 .1-6.6-5.3-12-11.9-12zm-11.4-8.1c.9 1 1 2.6.3 4.8-.1.2-2.1 4.5-8.1 6.1-.4-1.1-1.2-2-2.3-2.5.9-.5 1.6-1.1 2.2-1.8 2.3-2.7 2.4-6.4 2.4-7.9 1.4-.2 4.2-.2 5.5 1.3zm-8.2 15.3c.7 0 1.2.6 1.2 1.2 0 .7-.6 1.2-1.2 1.2-.7 0-1.3-.6-1.3-1.2.1-.6.6-1.2 1.3-1.2zM27.4 41c-2.1-.2-3.8-1-4.9-2.3-1.7-2-2-4.9-2.1-6.4 2.3 1.8 4.9 2.9 7.4 2.9 2.1 0 4.8-1 7.1-2.8 0 1.6-.4 4.4-2.1 6.4-1.1 1.2-2.8 2-4.9 2.2h-.5zM19 5.4h.6l.1-.6s.7-3.6 6.8-3.6c.1 0 5.6.3 8.1 1.4.1 0 .7.3 1.6.3.7 0 1.4-.1 2-.4-.2.4-.6.9-1.1 1.5L36 5.2l1.6.1c.1 0 3.3.3 3 5.3l-.4 3.6-1.7.7c-.4-.5-1-.7-1.3-.8-.8-.1-1.6-.1-2.6-.1-1.7 0-3.3.2-3.4.2-1.3.2-2.2.6-2.6 1.4 0 .1 0 .1-.1.2h-1.3c0-.1 0-.1-.1-.2-.4-.8-1.3-1.3-2.6-1.4-.1 0-1.7-.2-3.4-.2-1 0-1.9.1-2.5.2-.3.1-.9.3-1.3.8l-2-.8c0-.4-.1-.7-.1-1V12c-.2-3.4 0-6.4 3.8-6.6zm18.5 11.9l-.1.7c-.3 1.8-.4 2.1-1.3 2.3 0 0-1 .2-2.2.2-1.3 0-2.2-.3-2.7-.7-.2-.3-.8-1.4-1.3-2.7 0 0-.2-.5 0-.8.2-.3.7-.5 1.4-.6 0 0 1.6-.2 3.3-.2.9 0 1.7.1 2.2.2.1-.1 1 .1.7 1.6zm-11.8-.1c-.5 1.3-1.1 2.4-1.3 2.6-.5.5-1.4.7-2.7.7-1.1 0-2.1-.2-2.1-.2-.9-.3-1-.6-1.3-2.4l-.1-.7c-.2-1.4.5-1.6.7-1.7.5-.1 1.3-.2 2.2-.2 1.6 0 3.2.2 3.2.2.8.1 1.3.3 1.4.6.3.5.1 1 0 1.1zm-9.1 4.6l-.3-.2c-.9-.7-3.1-2.7-3-4.4 0-1.1.4-1.1.7-1.1.4 0 .8-.2 1-.4l1.7.7c-.1.4-.1.8 0 1.3l.1.7c.3 1.8.5 3 2.4 3.6 0 0 1.2.2 2.5.2 1.8 0 3.1-.4 3.9-1.3l.1-.1c0-.1.9-1.4 1.5-2.9l.2-.6h1.1c.1.3.2.5.2.5.6 1.6 1.5 2.9 1.5 3l.1.1c.8.8 2.1 1.3 3.9 1.3 1.3 0 2.4-.2 2.5-.3 1.9-.6 2.1-1.7 2.4-3.5l.1-.7c.1-.5.1-.9 0-1.3l1.6-.6c.2.1.4.2.6.2h.6c.2 0 .6 0 .6 1.1 0 1.7-2.2 3.8-3 4.4l-.3.2v.4c0 3.3-1.8 6.4-4.2 8.5-2.2 1.9-4.9 3.1-7 3.1-5 0-11.1-5.1-11.2-11.4l-.3-.5zm-3 11.3c1.3-1.5 4.1-1.5 5.4-1.4 0 1.6.1 5.3 2.4 7.9.7.9 1.6 1.5 2.7 2-.9.6-1.6 1.5-2 2.5-6.6-1.5-8.8-6.1-8.8-6.2-.7-2.2-.6-3.8.3-4.8zm9 17.1c.7 0 1.3.6 1.3 1.2 0 .7-.6 1.2-1.3 1.2-.7 0-1.3-.6-1.3-1.2.1-.7.6-1.2 1.3-1.2zM1.3 55.7V54c0-6.8 4.4-12.8 10.8-15 .8 1.4 3.5 5.3 9.7 6.7v3.1c-1.2.3-2 1.4-2 2.6 0 1.5 1.2 2.7 2.8 2.7s2.8-1.2 2.8-2.7c0-1.3-.8-2.3-2-2.6v-3.3c0-1.7 1.3-3 3-3H30c1.7 0 3 1.3 3 3V47c-1.2.3-2 1.4-2 2.6 0 1.5 1.2 2.7 2.7 2.7 1.5 0 2.7-1.2 2.7-2.7 0-1.3-.8-2.3-2-2.6v-1.5c5.7-1.5 8.2-5.2 8.9-6.6 2.1.6 4 1.7 5.6 3.1-4.5 1.7-7.8 6.1-7.8 11.2 0 .8.1 1.7.3 2.4H1.3zm51.9 8c-5.8 0-10.5-4.7-10.5-10.5s4.7-10.5 10.5-10.5 10.5 4.7 10.5 10.5S59 63.7 53.2 63.7z"></path></g><!----></svg>